<?xml version="1.0" encoding="utf-8"?>
<!-- Generator: Adobe Illustrator 16.0.0, SVG Export Plug-In . SVG Version: 6.00 Build 0)  -->
<!DOCTYPE svg PUBLIC "-//W3C//DTD SVG 1.1//EN" "http://www.w3.org/Graphics/SVG/1.1/DTD/svg11.dtd">
<svg version="1.1" id="Layer_1" xmlns="http://www.w3.org/2000/svg" xmlns:xlink="http://www.w3.org/1999/xlink" x="0px" y="0px"
	 width="25px" height="25px" viewBox="0 0 25 25" enable-background="new 0 0 25 25" xml:space="preserve">
<g id="facebook_1_">
	<path fill="#636464" d="M24.5,3v19c0,1.4-1.1,2.5-2.5,2.5h-5.5v-10h3v-3h-3V9.8c0-0.899,0.3-1.3,1.6-1.3h1.4v-4c0,0-1,0-4,0
		s-3,3-3,4s0,3,0,3h-2v3h2v10H3c-1.4,0-2.5-1.1-2.5-2.5V3c0-1.4,1.1-2.5,2.5-2.5h19C23.4,0.5,24.5,1.6,24.5,3z"/>
</g>
</svg>
