<?xml version="1.0" encoding="utf-8"?>
<!-- Generator: Adobe Illustrator 16.0.0, SVG Export Plug-In . SVG Version: 6.00 Build 0)  -->
<!DOCTYPE svg PUBLIC "-//W3C//DTD SVG 1.1//EN" "http://www.w3.org/Graphics/SVG/1.1/DTD/svg11.dtd">
<svg version="1.1" id="Layer_1" xmlns="http://www.w3.org/2000/svg" xmlns:xlink="http://www.w3.org/1999/xlink" x="0px" y="0px"
	 width="100px" height="50px" viewBox="0 0 100 50" enable-background="new 0 0 100 50" xml:space="preserve">
<g id="Logo">
	<g>
		<g opacity="0.7">
			<rect x="0.003" y="28.053" fill="#3E525C" width="4.171" height="2.087"/>
			<rect x="6.26" y="28.053" fill="#3E525C" width="4.168" height="2.087"/>
			<rect y="23.882" fill="#3E525C" width="10.43" height="2.086"/>
			<rect x="0.003" y="19.712" fill="#3E525C" width="6.257" height="2.085"/>
			<rect x="8.345" y="19.712" fill="#3E525C" width="2.086" height="2.085"/>
		</g>
		<g>
			<path fill="#414142" d="M40.708,19.7c-3.35,0-5.08,2.369-5.08,5.291c0,2.92,1.688,5.291,5.08,5.291
				c3.392,0,5.079-2.37,5.079-5.291C45.787,22.068,44.058,19.7,40.708,19.7z M43.242,25L43.242,25
				c-0.003,1.878-0.636,3.401-2.534,3.401c-1.899,0-2.532-1.521-2.533-3.401l0,0c0-0.001,0-0.003,0-0.004c0-0.002,0-0.004,0-0.005
				l0,0c0.001-1.879,0.635-3.401,2.533-3.401s2.531,1.522,2.534,3.401l0,0c0,0.001,0,0.003,0,0.005
				C43.242,24.997,43.242,24.999,43.242,25z"/>
			<path fill="#414142" d="M25.71,30.139V15.512c0,0,1.929-0.274,2.079-0.294c0.169-0.022,0.395,0.098,0.395,0.336
				c0,0.261,0,5.422,0,5.422c0.4-0.38,0.841-0.688,1.321-0.921c0.481-0.233,1.045-0.35,1.693-0.35c0.561,0,1.058,0.095,1.492,0.286
				c0.434,0.19,0.797,0.457,1.087,0.801s0.511,0.754,0.661,1.231c0.15,0.478,0.225,1.003,0.225,1.578v6.539h-2.474V23.6
				c0-0.627-0.145-1.113-0.436-1.458c-0.29-0.344-0.726-0.516-1.307-0.516c-0.427,0-0.828,0.097-1.201,0.291
				c-0.374,0.194-0.728,0.458-1.062,0.792v7.43H25.71z"/>
			<path fill="#414142" d="M58.731,30.279c-1.702,0-2.769-0.99-2.769-2.839v-5.476h-1.918c0,0,0.407-1.41,0.439-1.521
				s0.116-0.23,0.286-0.253c0.169-0.023,1.189-0.166,1.189-0.166l0.472-2.999c0,0,1.385-0.195,1.604-0.228
				c0.208-0.031,0.396,0.118,0.396,0.344c0,0.226,0,2.883,0,2.883h2.426v1.94h-2.426v5.403c0,0.738,0.449,1.02,0.88,1.02
				c0.263,0,0.623-0.14,0.893-0.265c0.165-0.077,0.423-0.02,0.489,0.212c0.06,0.206,0.372,1.297,0.372,1.297
				C60.796,29.805,59.943,30.279,58.731,30.279z"/>
			<path fill="#414142" d="M52.685,21.997c-0.481-0.157-1.388-0.407-2.25-0.407c-0.878,0-1.568,0.303-1.568,1.034
				c0,0.912,1.489,1.177,2.508,1.549c0.682,0.249,2.51,0.733,2.51,2.698c0,2.388-1.983,3.408-4.099,3.408s-3.365-0.787-3.365-0.787
				s0.328-1.158,0.395-1.388c0.061-0.206,0.3-0.278,0.452-0.22c0.545,0.21,1.527,0.502,2.639,0.502c1.125,0,1.669-0.344,1.669-1.076
				c0-0.975-1.519-1.272-2.523-1.588c-0.692-0.218-2.524-0.727-2.524-2.889c0-2.129,1.87-3.128,3.869-3.128
				c1.691,0,2.521,0.354,3.141,0.669c0,0-0.346,1.204-0.396,1.383C53.079,21.97,52.904,22.068,52.685,21.997z"/>
			<path fill="#414142" d="M24.745,20.057c0-0.23-0.197-0.362-0.385-0.341c-0.83,0.095-1.422,0.486-1.805,0.85
				c-0.752-0.589-1.797-0.871-2.969-0.871c-2.35,0-4.186,1.134-4.186,3.607c0,1.419,0.604,2.397,1.564,2.973
				c-0.712,0.337-1.187,1.053-1.187,1.757c0,1.178,0.93,1.546,0.93,1.546s-1.626,0.789-1.626,2.368c0,2.021,1.86,2.839,4.133,2.839
				c3.276,0,5.531-1.354,5.531-3.838c0-1.529-1.171-2.374-3.721-2.475c-1.514-0.06-2.494-0.114-2.737-0.194
				c-0.321-0.106-0.479-0.363-0.479-0.647c0-0.313,0.257-0.611,0.663-0.815c0.354,0.063,0.727,0.093,1.114,0.093
				c2.352,0,4.186-1.13,4.186-3.606c0-0.601-0.108-1.122-0.306-1.567c0.346-0.184,0.771-0.314,1.278-0.314
				C24.745,21.421,24.745,20.268,24.745,20.057z M18.269,30.151c0,0,1.234,0.047,2.467,0.104c1.385,0.064,1.817,0.363,1.817,1.08
				c0,0.877-1.204,1.729-2.886,1.729c-1.597,0-2.395-0.556-2.395-1.48C17.272,31.053,17.552,30.459,18.269,30.151z M19.59,25.183
				c-1.113,0-1.982-0.591-1.982-1.881c0-1.291,0.87-1.881,1.982-1.881s1.982,0.59,1.982,1.881
				C21.572,24.593,20.704,25.183,19.59,25.183z"/>
		</g>
	</g>
</g>
</svg>
