<?xml version="1.0" encoding="utf-8"?>
<!-- Generator: Adobe Illustrator 16.0.0, SVG Export Plug-In . SVG Version: 6.00 Build 0)  -->
<!DOCTYPE svg PUBLIC "-//W3C//DTD SVG 1.1//EN" "http://www.w3.org/Graphics/SVG/1.1/DTD/svg11.dtd">
<svg version="1.1" id="Layer_1" xmlns="http://www.w3.org/2000/svg" xmlns:xlink="http://www.w3.org/1999/xlink" x="0px" y="0px"
	 width="25px" height="25px" viewBox="0 0 25 25" enable-background="new 0 0 25 25" xml:space="preserve">
<g id="github_2_">
	<path fill="#636464" d="M22,0.5H3C1.6,0.5,0.5,1.6,0.5,3v19c0,1.4,1.1,2.5,2.5,2.5h19c1.4,0,2.5-1.1,2.5-2.5V3
		C24.5,1.6,23.4,0.5,22,0.5z M10.5,16.5h-2v-3h2V16.5z M13.5,17.5h-2v-1h2V17.5z M16.5,16.5h-2v-3h2V16.5z M15.5,7.5L15.5,7.5l4-2
		l0.1,4c0.7,0.9,0.9,1.8,0.9,3v1c0,1.8-1,3.4-2.5,4.3c0.3-0.399,0.5-0.8,0.5-1.3v-2c0-1.1-0.9-2-2-2h-8c-1.1,0-2,0.9-2,2v2
		c0,0.5,0.2,1,0.5,1.3c-1.5-0.899-2.5-2.5-2.5-4.3v-1c0-1.1,0.4-2.2,1-3v-4l4,2H15.5z"/>
</g>
</svg>
