<?xml version="1.0" encoding="utf-8"?>
<!-- Generator: Adobe Illustrator 16.0.0, SVG Export Plug-In . SVG Version: 6.00 Build 0)  -->
<!DOCTYPE svg PUBLIC "-//W3C//DTD SVG 1.1//EN" "http://www.w3.org/Graphics/SVG/1.1/DTD/svg11.dtd">
<svg version="1.1" id="Layer_1" xmlns="http://www.w3.org/2000/svg" xmlns:xlink="http://www.w3.org/1999/xlink" x="0px" y="0px"
	 width="25px" height="25px" viewBox="0 0 25 25" enable-background="new 0 0 25 25" xml:space="preserve">
<g id="twitter">
	<path fill="#636464" d="M22,0.5H3C1.6,0.5,0.5,1.6,0.5,3v19c0,1.4,1.1,2.5,2.5,2.5h19c1.4,0,2.5-1.1,2.5-2.5V3
		C24.5,1.6,23.4,0.5,22,0.5z M19.6,9.4c0,0.199,0,0.3,0,0.5C19.6,14.6,16,20.1,9.4,20.1c-2,0-3.9-0.6-5.5-1.6c0.3,0,0.6,0.1,0.9,0.1
		c1.7,0,3.2-0.6,4.5-1.5c-1.6,0-2.9-1.1-3.3-2.5c0.2,0,0.4,0.101,0.7,0.101c0.3,0,0.6,0,0.9-0.101c-1.6-0.3-2.9-1.8-2.9-3.5l0,0
		c0.5,0.301,1,0.4,1.6,0.4c-1-0.6-1.6-1.7-1.6-3c0-0.7,0.2-1.3,0.5-1.8C7,8.9,9.6,10.3,12.6,10.4C12.5,10.1,12.5,9.9,12.5,9.6
		c0-2,1.6-3.6,3.6-3.6c1,0,2,0.4,2.601,1.1C19.5,6.9,20.3,6.6,21,6.2c-0.3,0.8-0.8,1.5-1.6,2C20.1,8.1,20.8,7.9,21.5,7.6
		C21,8.3,20.3,8.9,19.6,9.4z"/>
</g>
</svg>
